<?xml version="1.0" encoding="utf-8"?>
<svg version="1.1" id="Layer_1" xmlns="http://www.w3.org/2000/svg" xmlns:xlink="http://www.w3.org/1999/xlink" x="0px" y="0px"
	 viewBox="0 0 429 96" style="enable-background:new 0 0 429 96;" xml:space="preserve">
<style type="text/css">
	.st0{fill:#0092D0;}
	.st1{fill:#FFFFFF;}
</style>
<polygon id="XMLID_28_" class="st0" points="75.1,23.5 75.1,60.6 63.5,53.9 63.5,30.2 "/>
<polygon id="XMLID_25_" class="st1" points="28.4,79.9 18.5,96.4 72.4,65.2 60.8,58.5 37.6,71.9 14.5,58.5 2.9,65.2 "/>
<polygon id="XMLID_12_" class="st0" points="11.8,30.2 11.8,53.9 0.2,60.6 0.2,23.5 "/>
<polygon id="XMLID_9_" class="st0" points="34.9,0.4 34.9,13.8 14.5,25.6 2.9,18.9 "/>
<polygon id="XMLID_6_" class="st0" points="72.4,18.9 60.8,25.6 40.3,13.8 40.3,0.4 "/>
<path id="XMLID_133_" class="st1" d="M86,42.3c0-12.7,9.8-22.4,22.7-22.4s22.7,9.7,22.7,22.4s-9.8,22.4-22.7,22.4S86,55,86,42.3z
	 M121.9,42.3c0-7.7-5.7-13.8-13.2-13.8c-7.5,0-13.2,6.1-13.2,13.8s5.7,13.8,13.2,13.8C116.3,56.1,121.9,50,121.9,42.3z"/>
<path id="XMLID_130_" class="st1" d="M140.5,20.5h13.7c9.9,0,18.8,2.7,18.8,13.1c0,5.6-3.1,10.2-8.8,12l12.3,18.4h-11l-11-17.2h-4.3
	v17.2h-9.6V20.5z M154.9,39.7c5.4,0,8.5-1.4,8.5-5.4c0-3.8-2.5-5.4-9.6-5.4h-3.7v10.8H154.9z"/>
<path id="XMLID_128_" class="st1" d="M204.8,19.9c5.4,0,10,1.4,13.4,3.3v9.6c-3.7-2.5-8.4-4.3-13.2-4.3c-8.8,0-14.4,6.2-14.4,14
	c0,7.6,5.4,14,14.4,14c2,0,3.9-0.4,5.4-1v-6.6h-7.6v-7.9h16.8v20.2c-3.9,2.2-9.4,3.6-14.8,3.6c-14,0-23.8-9.4-23.8-22.3
	C181,29.6,190.9,19.9,204.8,19.9z"/>
<path id="XMLID_125_" class="st1" d="M244,20.5h9.3L271,64.1h-10.2l-3.5-9.1h-17.6l-3.6,9.1h-9.8L244,20.5z M242.6,47.4h11.7
	l-1.8-4.9c-1.3-3.4-2.8-7.8-4-11.1h-0.1c-1.1,3.3-2.7,7.6-4.1,11.3L242.6,47.4z"/>
<path id="XMLID_123_" class="st1" d="M295.5,46.5c-2.8-3.8-5.5-7.5-8.2-11.3l-0.1,0.1c0.1,4.2,0.1,8.4,0.1,12.6v16.2h-9.2V20.5h9
	l13.1,17.6c2.8,3.8,5.5,7.5,8.2,11.3l0.1-0.1c-0.1-4.2-0.1-8.4-0.1-12.6V20.5h9.2v43.6h-9L295.5,46.5z"/>
<path id="XMLID_121_" class="st1" d="M339.6,28.9h-14.1v-8.4h37.7v8.4h-14.1v35.2h-9.6V28.9z"/>
<path id="XMLID_115_" class="st1" d="M371.1,20.5h9.6v43.6h-9.6V20.5z"/>
<path id="XMLID_113_" class="st1" d="M391.6,20.5v43.6h9.6V20.5H391.6z"/>
<polygon id="XMLID_110_" class="st0" points="429.3,64.1 417.5,64.1 401.3,42.3 401.2,42.4 401.2,39.8 401.3,39.8 416.5,20.5 
	427.9,20.5 411.4,40.7 "/>
</svg>
