<svg version="1" xmlns="http://www.w3.org/2000/svg" width="866.667" height="866.667" viewBox="0 0 650.000000 650.000000"><path d="M302 2.6c-2.5 1.4-6.3 3.6-8.5 4.9-23.3 13.3-50.2 28.8-51 29.4-.5.5-3.5 2.2-6.5 3.8-3 1.6-15.2 8.6-27 15.5-11.8 6.8-22.2 12.8-23 13.1-.8.4-10.7 6.1-22 12.7s-32.5 18.8-47.2 27.2c-14.7 8.4-26.7 15.6-26.8 15.9 0 .3 1 1.1 2.3 1.7 1.2.6 4 2.3 6.2 3.7 2.2 1.4 4.7 2.8 5.5 3.2.8.4 8 4.5 16 9.1 22.9 13.4 31.3 18.2 31.5 18.2.1 0 3.9 2.2 8.4 4.9l8.3 4.9 6.9-3.9c3.8-2.2 10.3-6 14.5-8.4 4.2-2.5 7.8-4.5 8-4.5.2 0 2.1-1.1 4.2-2.4 3.6-2.3 9.7-5.8 64.2-37.1 14-8 26.2-15 27-15.5.8-.5 4.3-2.5 7.8-4.5l6.2-3.6V45.5c0-25-.1-45.5-.2-45.5-.2 0-2.3 1.2-4.8 2.6zM343 45.4v45.4l8.3 4.8c4.5 2.7 9.1 5.3 10.2 6 1.1.6 13.9 8 28.5 16.4 14.6 8.4 28.3 16.3 30.5 17.5 2.2 1.3 16.6 9.6 32 18.5 15.4 8.9 28.5 16.3 29 16.3.6 0 8.2-4.2 17-9.3 8.8-5.1 18-10.4 20.5-11.8 4.6-2.5 19.6-11.2 26-15.1 1.9-1.1 4.4-2.5 5.5-3 1.1-.6 3.8-2.1 5.9-3.4l3.9-2.4-2.4-1.6c-1.3-.8-17-9.9-34.9-20.2-47.3-27.2-64.6-37.2-72.8-42.1-4-2.4-7.5-4.4-7.7-4.4-.2 0-6.8-3.8-14.7-8.4-14-8.1-51.9-30-58.8-33.9-1.9-1.1-7.2-4.1-11.6-6.7-4.5-2.7-9.6-5.6-11.3-6.4L343-.1v45.5zM71.5 282c0 68.8.3 125 .8 125 .4 0 2.4-1 4.5-2.3 2-1.3 4.4-2.7 5.2-3 .8-.4 2.9-1.5 4.5-2.6 1.7-1 16.5-9.6 33-19 16.5-9.5 30.2-17.5 30.4-17.7.2-.2.4-36.2.4-79.9 0-67-.2-79.8-1.4-80.9-1.2-1.1-46.9-27.7-60.2-35.1-2.6-1.4-7.4-4.2-10.5-6.1-3.1-1.8-5.9-3.4-6.2-3.4-.3 0-.5 56.2-.5 125zM554 170.6c-12.9 7.5-30.2 17.5-38.3 22.2-8.1 4.7-15.1 9-15.4 9.5-.5.8-.8 147-.4 157.7.1 2.5 2 3.9 17.1 12.3 2.5 1.4 17 9.7 32.4 18.6 15.3 8.9 28.1 16.1 28.5 16.1.3 0 .6-56.3.6-125 0-68.8-.2-125-.5-125s-11.1 6.2-24 13.6zM163.9 395.9c-2.4 1.5-7.1 4.3-10.5 6.2-21.3 12-63.3 36.5-63.4 37 0 .3 1 1.1 2.3 1.7 1.2.6 4.5 2.4 7.2 4 2.8 1.6 23.9 13.8 47 27.2 23.1 13.3 51 29.4 62 35.8 11 6.3 21.2 12.4 22.8 13.4 1.5 1.1 2.7 1.6 2.7 1.2 0-.4.8 0 1.8.8.9.8 7.1 4.5 13.7 8.3 6.6 3.7 12.1 6.8 12.2 7 .2.1-1.7 3.4-4.2 7.4s-4.5 7.5-4.5 7.8c0 .3-1 1.9-2.2 3.6-1.3 1.8-3 4.5-3.8 6-1.5 2.8-17.4 29.4-33.6 56.1-4.6 7.7-8.4 14.1-8.4 14.3 0 .1-2.1 3.5-4.6 7.4-2.5 3.9-4.3 7.3-4.1 7.5.4.4 40.6-22.5 101.6-58 6.2-3.6 11.5-6.6 11.6-6.6.2 0 6.4-3.6 13.9-8 7.6-4.4 14-8 14.3-8 .4 0 1.4-.6 2.2-1.4.9-.7 4.3-2.8 7.6-4.6 3.3-1.7 6.5-3.5 7-4 .6-.4 3-1.9 5.5-3.2 2.5-1.4 8.6-4.9 13.5-7.8 5-2.9 10.8-6.2 13-7.4 2.2-1.3 8.3-4.7 13.5-7.8 5.2-3 24.1-13.9 42-24.2 17.9-10.4 41.3-23.9 52-30.1 10.7-6.2 21.3-12.3 23.6-13.6 2.3-1.3 10.7-6.2 18.8-10.9 8.1-4.7 16.7-9.6 19.2-11 2.4-1.3 4.4-2.7 4.4-3 0-.4-1.7-1.5-3.7-2.6-3.9-2.1-40.9-23.4-47.3-27.3-1.9-1.1-4.2-2.4-5-2.8-.8-.4-5.9-3.3-11.3-6.5S482.4 394 482 394c-1.2 0-6.3 2.8-25.5 14L437 419.3c-1.9 1-16.5 9.5-32.5 18.7-15.9 9.2-38.2 22.1-49.5 28.6-11.3 6.5-22.7 13-25.3 14.5l-4.9 2.6-15.6-9c-8.7-4.9-17.4-10.1-19.4-11.4-2.1-1.2-3.9-2.3-4.1-2.3-.2 0-11.4-6.3-24.8-14.1s-38.1-22-54.9-31.7c-16.8-9.6-32.1-18.5-34.1-19.8l-3.6-2.2-4.4 2.7z"/></svg>